<svg width="2593" height="1220" viewBox="0 0 2593 1220" fill="none" xmlns="http://www.w3.org/2000/svg">
<path d="M275.854 188.612C271.296 171.604 287.224 156.208 304.191 161.327L304.191 161.328L755.518 299.298C761.457 301.154 765.974 305.836 767.583 311.843L891.98 776.096C893.565 782.014 891.931 788.438 887.779 792.905L565.904 1138.05L565.904 1138.06C553.883 1151.03 532.28 1145.61 527.721 1128.59L472.105 921.033C470.518 915.11 472.069 908.712 476.302 904.225L476.305 904.224L780.505 577.976C792.339 565.282 786.769 544.494 770.173 539.418L374.663 418.458L374.137 418.308C368.756 416.819 363.345 416.845 358.289 418.2C350.329 420.333 343.511 425.668 339.512 433.372L339.51 433.375C336.221 439.849 335.392 447.37 337.288 454.447L337.771 454.318C337.288 454.448 337.289 454.449 337.289 454.451L337.516 455.297C337.667 455.859 337.891 456.694 338.184 457.787C338.771 459.973 339.634 463.192 340.742 467.32C342.957 475.577 346.148 487.473 350.054 502.031C357.867 531.149 368.537 570.919 379.971 613.528C397.123 677.441 415.993 747.742 429.511 798.06L440.982 840.742C444.218 852.821 437.034 865.14 425.039 868.354L250.782 915.046C238.788 918.26 226.383 911.098 223.169 899.104L115.828 498.503C112.614 486.509 119.777 474.104 131.771 470.89L280.724 430.978C288.617 428.863 295.977 425.105 302.236 420.044L302.237 420.042C310.493 413.318 316.928 404.355 320.583 393.788L320.583 393.787C324.492 382.392 324.455 369.996 321.334 358.348L275.854 188.612Z" stroke="url(#paint0_linear_10703_43797)"/>
<path d="M713.016 254.918L261.689 116.947C244.35 111.714 228.062 127.448 232.722 144.839L278.203 314.575C281.302 326.14 281.334 338.434 277.462 349.723C273.839 360.2 267.459 369.086 259.273 375.752C253.069 380.77 245.772 384.496 237.946 386.593L88.9926 426.505C76.7319 429.79 69.4115 442.469 72.6968 454.73L180.038 855.331C183.323 867.592 196.002 874.912 208.263 871.627L382.52 824.935C394.781 821.649 402.125 809.057 398.816 796.71C374.381 705.865 295.123 410.416 295.123 410.416C293.259 403.459 294.073 396.065 297.307 389.699C301.241 382.121 307.944 376.877 315.77 374.78C320.901 373.405 326.404 373.422 331.868 375.033L727.379 495.994C743.621 500.961 749.073 521.309 737.491 533.732L433.291 859.98C428.935 864.596 427.343 871.173 428.974 877.26L484.59 1084.82C489.25 1102.21 511.332 1107.76 523.622 1094.49L845.497 749.343C849.765 744.751 851.445 738.15 849.814 732.063L783.411 484.242L725.418 267.811C723.764 261.637 719.119 256.824 713.016 254.918Z" fill="url(#paint1_linear_10703_43797)"/>
<path d="M2316.27 188.612C2320.83 171.604 2304.9 156.208 2287.93 161.327L2287.93 161.328L1836.61 299.298C1830.67 301.154 1826.15 305.836 1824.54 311.843L1700.15 776.096C1698.56 782.014 1700.19 788.438 1704.35 792.905L2026.22 1138.05L2026.22 1138.06C2038.24 1151.03 2059.85 1145.61 2064.4 1128.59L2120.02 921.033C2121.61 915.11 2120.06 908.712 2115.82 904.225L2115.82 904.224L1811.62 577.976C1799.79 565.282 1805.36 544.494 1821.95 539.418L2217.46 418.458L2217.99 418.308C2223.37 416.819 2228.78 416.845 2233.84 418.2C2241.8 420.333 2248.61 425.668 2252.61 433.372L2252.62 433.375C2255.9 439.849 2256.73 447.37 2254.84 454.447L2254.35 454.318C2254.84 454.448 2254.84 454.449 2254.84 454.451L2254.61 455.297C2254.46 455.859 2254.23 456.694 2253.94 457.787C2253.35 459.973 2252.49 463.192 2251.38 467.32C2249.17 475.577 2245.98 487.473 2242.07 502.031C2234.26 531.149 2223.59 570.919 2212.15 613.528C2195 677.441 2176.13 747.742 2162.61 798.06L2151.14 840.742C2147.91 852.821 2155.09 865.14 2167.09 868.354L2341.34 915.046C2353.34 918.26 2365.74 911.098 2368.96 899.104L2476.3 498.503C2479.51 486.509 2472.35 474.104 2460.35 470.89L2311.4 430.978C2303.51 428.863 2296.15 425.105 2289.89 420.044L2289.89 420.042C2281.63 413.318 2275.2 404.355 2271.54 393.788L2271.54 393.787C2267.63 382.392 2267.67 369.996 2270.79 358.348L2316.27 188.612Z" stroke="url(#paint2_linear_10703_43797)"/>
<path d="M1879.1 254.918L2330.43 116.947C2347.77 111.714 2364.06 127.448 2359.4 144.839L2313.92 314.575C2310.82 326.14 2310.79 338.434 2314.66 349.723C2318.28 360.2 2324.66 369.086 2332.85 375.752C2339.05 380.77 2346.35 384.496 2354.17 386.593L2503.13 426.505C2515.39 429.79 2522.71 442.469 2519.42 454.73L2412.08 855.331C2408.8 867.592 2396.12 874.912 2383.86 871.627L2209.6 824.935C2197.34 821.649 2190 809.057 2193.31 796.71C2217.74 705.865 2297 410.416 2297 410.416C2298.86 403.459 2298.05 396.065 2294.81 389.699C2290.88 382.121 2284.18 376.877 2276.35 374.78C2271.22 373.405 2265.72 373.422 2260.25 375.033L1864.74 495.994C1848.5 500.961 1843.05 521.309 1854.63 533.732L2158.83 859.98C2163.19 864.596 2164.78 871.173 2163.15 877.26L2107.53 1084.82C2102.87 1102.21 2080.79 1107.76 2068.5 1094.49L1746.62 749.343C1742.36 744.751 1740.68 738.15 1742.31 732.063L1808.71 484.242L1866.7 267.811C1868.36 261.637 1873 256.824 1879.1 254.918Z" fill="url(#paint3_linear_10703_43797)"/>
<defs>
<linearGradient id="paint0_linear_10703_43797" x1="813.18" y1="468.89" x2="560.425" y2="658.995" gradientUnits="userSpaceOnUse">
<stop stop-color="#E3E7EC"/>
<stop offset="1" stop-color="#E3E7EC" stop-opacity="0"/>
</linearGradient>
<linearGradient id="paint1_linear_10703_43797" x1="750.53" y1="507.775" x2="525.86" y2="587.763" gradientUnits="userSpaceOnUse">
<stop stop-color="#F3F3F7"/>
<stop offset="1" stop-color="#F3F3F7" stop-opacity="0"/>
</linearGradient>
<linearGradient id="paint2_linear_10703_43797" x1="1778.95" y1="468.89" x2="2031.7" y2="658.995" gradientUnits="userSpaceOnUse">
<stop stop-color="#E3E7EC"/>
<stop offset="1" stop-color="#E3E7EC" stop-opacity="0"/>
</linearGradient>
<linearGradient id="paint3_linear_10703_43797" x1="1841.59" y1="507.775" x2="2066.26" y2="587.763" gradientUnits="userSpaceOnUse">
<stop stop-color="#F3F3F7"/>
<stop offset="1" stop-color="#F3F3F7" stop-opacity="0"/>
</linearGradient>
</defs>
</svg>
