<svg width="184" height="32" viewBox="0 0 184 32" fill="none" xmlns="http://www.w3.org/2000/svg">
<g clip-path="url(#clip0_10611_69250)">
<path d="M20.9839 15.5254V16.5327L20.1797 16.029L20.9839 15.5254Z" fill="#8872FD"/>
<path d="M20.7165 8.11623L8.34504 0.386147C7.86922 0.0911906 7.25704 0.430669 7.25704 0.987191V6.41884C7.25704 6.78893 7.15965 7.15623 6.95374 7.46232C6.76174 7.74615 6.50017 7.96041 6.20244 8.09397C5.97704 8.19415 5.72939 8.24702 5.47896 8.24702H0.712348C0.32 8.24702 0 8.56702 0 8.95936V21.7788C0 22.1712 0.32 22.4912 0.712348 22.4912H6.2887C6.68104 22.4912 7.00104 22.174 7.00104 21.7788C6.99826 18.871 6.99548 9.41571 6.99548 9.41571C6.99548 9.1931 7.07896 8.97884 7.22644 8.81467C7.40452 8.61989 7.64661 8.51693 7.89704 8.51693C8.06122 8.51693 8.22539 8.56145 8.37565 8.65328L19.2167 15.4289C19.6619 15.7072 19.6619 16.3583 19.2167 16.6366L7.52417 23.9437C7.35722 24.0467 7.25704 24.2303 7.25704 24.4251V31.0672C7.25704 31.6237 7.872 31.966 8.34504 31.6682L20.7165 23.9381C20.8807 23.8352 20.9837 23.6515 20.9837 23.4568V15.5263V8.60041C20.9837 8.40284 20.8835 8.22197 20.7165 8.11623Z" fill="#8872FD"/>
<path d="M23.1031 23.9413L35.4745 31.6714C35.9504 31.9663 36.5625 31.6268 36.5625 31.0703V25.6387C36.5625 25.2686 36.6599 24.9013 36.8659 24.5952C37.0579 24.3114 37.3194 24.0971 37.6172 23.9635C37.8425 23.8634 38.0902 23.8105 38.3406 23.8105H43.1045C43.4968 23.8105 43.8168 23.4905 43.8168 23.0981V10.2815C43.8168 9.88911 43.4968 9.56911 43.1045 9.56911H37.5281C37.1358 9.56911 36.8158 9.88632 36.8158 10.2815C36.8185 13.1893 36.8213 22.6446 36.8213 22.6446C36.8213 22.8672 36.7379 23.0815 36.5904 23.2456C36.4123 23.4404 36.1702 23.5434 35.9198 23.5434C35.7556 23.5434 35.5914 23.4988 35.4412 23.407L24.6057 16.6314C24.1605 16.3531 24.1605 15.702 24.6057 15.4237L36.2954 8.11102C36.4624 8.00806 36.5625 7.82441 36.5625 7.62963V0.990323C36.5625 0.433802 35.9476 0.0915409 35.4745 0.38928L23.1031 8.11658C22.9389 8.21954 22.8359 8.40319 22.8359 8.59798V16.5312V23.4571C22.8359 23.6547 22.9361 23.8383 23.1031 23.9413Z" fill="#8872FD"/>
<path d="M50.8203 24.5586V7.52344H54.7104L58.6005 16.8786L60.1003 20.9467H60.3034L61.7782 16.8786L65.5932 7.52344H69.4833V24.5586H66.7619V14.4883L66.8648 11.6417H66.6867L65.6182 14.4883L61.8033 23.5401H58.4975L54.6575 14.4883L53.6419 11.6417H53.4137L53.5667 14.4883V24.5558H50.8203V24.5586Z" fill="#1A1A21"/>
<path d="M71.4883 18.2246C71.4883 14.3095 73.9036 11.666 77.7937 11.666C81.6587 11.666 83.9961 14.3095 83.9961 18.2246C83.9961 22.1648 81.6559 24.8111 77.7937 24.8111C73.9036 24.8111 71.4883 22.1676 71.4883 18.2246ZM81.3526 18.2246C81.3526 15.4031 80.4371 14.1064 77.7937 14.1064C75.1251 14.1064 74.1846 15.4031 74.1846 18.2246C74.1846 21.0712 75.1251 22.3679 77.7937 22.3679C80.4371 22.3707 81.3526 21.074 81.3526 18.2246Z" fill="#1A1A21"/>
<path d="M86.0586 24.5578V11.9192H88.5769V14.2845H88.6798C89.2642 12.9377 90.6109 11.666 93.0791 11.666C96.3598 11.666 97.8346 13.7502 97.8346 16.6246V24.5578H95.0882V17.234C95.0882 14.9718 94.3758 14.0312 92.0635 14.0312C89.8262 14.0312 88.8078 14.8966 88.8078 17.2591V24.5551H86.0586V24.5578Z" fill="#1A1A21"/>
<path d="M100.295 10.32L100.27 7.52344H103.016V10.32H100.295ZM100.295 24.5586V11.8448H103.041V24.5558H100.295V24.5586Z" fill="#1A1A21"/>
<path d="M104.926 18.2246C104.926 14.3095 107.266 11.666 111.028 11.666C114.434 11.666 116.824 13.7001 116.824 17.1589C116.824 17.8211 116.749 18.5057 116.671 18.8869H107.491C107.594 21.1992 108.432 22.3707 111.075 22.3707C113.185 22.3707 114 21.6584 114 20.5147V20.3116H116.721V20.5398C116.721 23.1331 114.459 24.8111 111.05 24.8111C106.882 24.8111 104.926 22.1676 104.926 18.2246ZM107.516 17.0559H114.203C114.306 14.8938 113.134 13.9784 110.975 13.9784C108.585 13.9811 107.669 15.0998 107.516 17.0559Z" fill="#1A1A21"/>
<path d="M123.74 24.5586L117.281 7.52344H120.359L125.496 21.506H125.699L130.782 7.52344H133.832L127.374 24.5586H123.74Z" fill="#1A1A21"/>
<path d="M133.48 18.2246C133.48 14.3095 135.821 11.666 139.583 11.666C142.989 11.666 145.379 13.7001 145.379 17.1589C145.379 17.8211 145.304 18.5057 145.226 18.8869H136.049C136.152 21.1992 136.989 22.3707 139.633 22.3707C141.742 22.3707 142.557 21.6584 142.557 20.5147V20.3116H145.279V20.5398C145.279 23.1331 143.016 24.8111 139.608 24.8111C135.437 24.8111 133.48 22.1676 133.48 18.2246ZM136.074 17.0559H142.76C142.863 14.8938 141.692 13.9784 139.533 13.9784C137.14 13.9811 136.224 15.0998 136.074 17.0559Z" fill="#1A1A21"/>
<path d="M147.566 24.5578V11.8441H150.082V13.8531H150.21C150.719 12.6845 151.888 11.666 153.744 11.666C156.387 11.666 157.406 13.5971 157.406 15.9624V16.7999H154.659V16.2907C154.659 14.6128 154.175 14.0034 152.575 14.0034C150.922 14.0034 150.313 14.6378 150.313 16.3158V24.5523H147.566V24.5578Z" fill="#1A1A21"/>
<path d="M159.032 20.2874V20.2373H161.675V20.6936C161.675 22.0655 162.285 22.5747 164.7 22.5747C166.734 22.5747 167.115 22.1183 167.115 21.175C167.115 20.1594 166.506 19.8533 164.65 19.5222L162.691 19.191C160.429 18.7848 159.004 17.7663 159.004 15.479C159.004 13.1917 160.885 11.6641 164.191 11.6641C167.165 11.6641 169.403 13.1388 169.403 16.0105V16.2387H166.784V15.9326C166.784 14.7639 166.378 13.9235 164.116 13.9235C162.107 13.9235 161.622 14.4578 161.622 15.4234C161.622 16.3889 162.081 16.67 163.86 17.0261L165.994 17.4324C168.434 17.9166 169.706 19.0101 169.706 21.0943C169.706 23.4345 167.85 24.8063 164.647 24.8063C160.966 24.8119 159.032 23.3622 159.032 20.2874Z" fill="#1A1A21"/>
<path d="M171.414 18.2246C171.414 14.3095 173.754 11.666 177.516 11.666C180.922 11.666 183.312 13.7001 183.312 17.1589C183.312 17.8211 183.237 18.5057 183.159 18.8869H173.982C174.085 21.1992 174.923 22.3707 177.566 22.3707C179.676 22.3707 180.491 21.6584 180.491 20.5147V20.3116H183.212V20.5398C183.212 23.1331 180.95 24.8111 177.541 24.8111C173.373 24.8111 171.414 22.1676 171.414 18.2246ZM174.007 17.0559H180.694C180.797 14.8938 179.626 13.9784 177.466 13.9784C175.076 13.9811 174.16 15.0998 174.007 17.0559Z" fill="#1A1A21"/>
</g>
<defs>
<clipPath id="clip0_10611_69250">
<rect width="183.374" height="32" fill="white"/>
</clipPath>
</defs>
</svg>
