<svg width="32" height="32" viewBox="0 0 32 32" fill="none" xmlns="http://www.w3.org/2000/svg">
<g clip-path="url(#clip0_10611_69272)">
<path fill-rule="evenodd" clip-rule="evenodd" d="M22.2244 18.5548L25.8459 22.1659L16.0013 32L6.16715 22.1659L9.78861 18.5548L16.0013 24.7675L22.2244 18.5548ZM16.0013 12.3317L19.6748 16.0052L16.0013 19.6787L12.3382 16.0156V16.0052L12.9834 15.36L13.2956 15.0478L16.0013 12.3317ZM3.61756 12.3837L7.23902 16.0052L3.61756 19.6163L-0.00390625 15.9948L3.61756 12.3837ZM28.385 12.3837L32.0065 16.0052L28.385 19.6163L24.7636 15.9948L28.385 12.3837ZM16.0013 0L25.8354 9.83415L22.214 13.4556L16.0013 7.23252L9.78861 13.4452L6.16715 9.83415L16.0013 0Z" fill="#F3BA2F"/>
</g>
<defs>
<clipPath id="clip0_10611_69272">
<rect width="32" height="32" fill="white"/>
</clipPath>
</defs>
</svg>
