<svg width="16" height="16" viewBox="0 0 16 16" fill="none" xmlns="http://www.w3.org/2000/svg">
<rect x="0.25" y="0.25" width="15.5" height="15.5" rx="7.75" fill="white"/>
<rect x="0.25" y="0.25" width="15.5" height="15.5" rx="7.75" stroke="#EEEEF0" stroke-width="0.5"/>
<path d="M7.98437 14.0039C11.2981 14.0039 13.9844 11.3176 13.9844 8.00391C13.9844 4.6902 11.2981 2.00391 7.98437 2.00391C4.67067 2.00391 1.98438 4.6902 1.98438 8.00391C1.98438 11.3176 4.67067 14.0039 7.98437 14.0039Z" fill="#F3BA2F"/>
<path fill-rule="evenodd" clip-rule="evenodd" d="M9.30945 8.54836L10.079 9.31571L7.98704 11.4055L5.89729 9.31571L6.66685 8.54836L7.98704 9.86856L9.30945 8.54836ZM7.98704 7.22596L8.76766 8.00657L7.98704 8.78719L7.20864 8.00879V8.00657L7.34574 7.86947L7.41208 7.80313L7.98704 7.22596ZM5.3555 7.23701L6.12506 8.00657L5.3555 8.77392L4.58594 8.00436L5.3555 7.23701ZM10.6186 7.23701L11.3881 8.00657L10.6186 8.77392L9.84903 8.00436L10.6186 7.23701ZM7.98704 4.60547L10.0768 6.69522L9.30724 7.46479L7.98704 6.14238L6.66685 7.46257L5.89729 6.69522L7.98704 4.60547Z" fill="#131415"/>
</svg>
