<svg width="16" height="16" viewBox="0 0 16 16" fill="none" xmlns="http://www.w3.org/2000/svg">
<rect x="0.25" y="0.25" width="15.5" height="15.5" rx="7.75" fill="white"/>
<rect x="0.25" y="0.25" width="15.5" height="15.5" rx="7.75" stroke="#EEEEF0" stroke-width="0.5"/>
<g clip-path="url(#clip0_10577_42100)">
<path d="M8 14C11.3137 14 14 11.3137 14 8C14 4.68629 11.3137 2 8 2C4.68629 2 2 4.68629 2 8C2 11.3137 4.68629 14 8 14Z" fill="#3E73C4"/>
<path d="M9.5076 8.79659C9.5076 8.00009 9.0276 7.72709 8.0676 7.61309C7.3821 7.52197 7.24523 7.34009 7.24523 7.02134C7.24523 6.70259 7.47398 6.49784 7.93073 6.49784C8.3421 6.49784 8.57085 6.63434 8.68485 6.97597C8.6967 7.009 8.71842 7.03762 8.74707 7.0579C8.77568 7.07823 8.80984 7.08929 8.84498 7.08959H9.2106C9.23172 7.09015 9.25272 7.08644 9.27237 7.07864C9.29198 7.07084 9.30983 7.0591 9.32479 7.04422C9.33975 7.02933 9.35157 7.01152 9.35944 6.99194C9.36735 6.97233 9.37118 6.95133 9.37073 6.93022V6.90772C9.32603 6.66055 9.20097 6.43507 9.01497 6.26628C8.82897 6.09749 8.59242 5.99489 8.3421 5.97434V5.42834C8.3421 5.33722 8.27348 5.26897 8.15948 5.24609H7.81635C7.72523 5.24609 7.6566 5.31434 7.63373 5.42834V5.95184C6.94785 6.04259 6.51398 6.49784 6.51398 7.06709C6.51398 7.81784 6.97073 8.11372 7.93073 8.22772C8.57085 8.34134 8.77635 8.47822 8.77635 8.84234C8.77635 9.20609 8.45648 9.45659 8.02223 9.45659C7.42785 9.45659 7.22235 9.20647 7.15373 8.86484C7.13123 8.77409 7.06223 8.72834 6.9936 8.72834H6.6051C6.58399 8.72781 6.56303 8.7316 6.54345 8.73944C6.52384 8.74724 6.50607 8.75898 6.4911 8.77387C6.47618 8.78875 6.46444 8.80653 6.45657 8.8261C6.44869 8.84568 6.44487 8.86664 6.44535 8.88772V8.91022C6.53648 9.47947 6.90248 9.88896 7.6566 10.003V10.5493C7.6566 10.6401 7.72523 10.7087 7.83923 10.7312H8.18235C8.27348 10.7312 8.3421 10.663 8.36498 10.5493V10.0026C9.05085 9.88897 9.5076 9.41122 9.5076 8.79659Z" fill="white"/>
<path d="M6.83423 11.1864C5.05149 10.5489 4.13724 8.56887 4.80024 6.8165C5.14299 5.86025 5.8971 5.13237 6.83423 4.79075C6.92573 4.74537 6.9711 4.67713 6.9711 4.56313V4.24438C6.9711 4.15363 6.92573 4.08538 6.83423 4.0625C6.81135 4.0625 6.7656 4.0625 6.74272 4.085C6.22841 4.24562 5.75092 4.5064 5.33777 4.85231C4.92463 5.19823 4.584 5.62246 4.33548 6.10055C4.08697 6.57868 3.93548 7.1012 3.88974 7.63809C3.84401 8.17497 3.90493 8.71561 4.06899 9.22888C4.47999 10.5039 5.46286 11.4826 6.74272 11.8921C6.83422 11.9375 6.92573 11.8921 6.94823 11.801C6.9711 11.7785 6.9711 11.7552 6.9711 11.7099V11.3911C6.9711 11.3229 6.90285 11.2321 6.83423 11.1864ZM9.25672 4.08537C9.16522 4.03962 9.07373 4.08537 9.05123 4.17612C9.02835 4.199 9.02835 4.22188 9.02835 4.26725V4.586C9.02835 4.67712 9.0966 4.76787 9.16522 4.81362C10.948 5.45112 11.8622 7.43113 11.1992 9.1835C10.8565 10.1398 10.1023 10.8676 9.16522 11.2093C9.07372 11.2546 9.02835 11.3229 9.02835 11.4369V11.7556C9.02835 11.8464 9.07372 11.9146 9.16522 11.9375C9.1881 11.9375 9.23385 11.9375 9.25672 11.915C9.77107 11.7544 10.2486 11.4936 10.6617 11.1477C11.0748 10.8018 11.4155 10.3775 11.664 9.89945C11.9125 9.42133 12.064 8.8988 12.1097 8.36191C12.1555 7.82502 12.0945 7.28439 11.9305 6.77112C11.5195 5.47362 10.5137 4.49487 9.25672 4.08537Z" fill="white"/>
</g>
<defs>
<clipPath id="clip0_10577_42100">
<rect width="12" height="12" fill="white" transform="translate(2 2)"/>
</clipPath>
</defs>
</svg>
