<svg width="16" height="16" viewBox="0 0 16 16" fill="none" xmlns="http://www.w3.org/2000/svg">
<rect x="0.25" y="0.25" width="15.5" height="15.5" rx="7.75" fill="white"/>
<rect x="0.25" y="0.25" width="15.5" height="15.5" rx="7.75" stroke="#EEEEF0" stroke-width="0.5"/>
<g clip-path="url(#clip0_10577_42104)">
<path d="M8 14C11.3214 14 14 11.3214 14 8C14 4.67857 11.3214 2 8 2C4.67857 2 2 4.67857 2 8C2 11.3214 4.67857 14 8 14Z" fill="#0098EA"/>
<path d="M9.96357 5.48438H6.03899C5.32357 5.48438 4.87388 6.26112 5.22137 6.89477L7.63335 11.0851C7.79688 11.3508 8.18525 11.3508 8.34877 11.0851L10.7608 6.89477C11.1287 6.26112 10.679 5.48438 9.96357 5.48438ZM7.65379 9.81777L7.12234 8.79574L5.85503 6.52684C5.77327 6.38376 5.87547 6.19979 6.05943 6.19979H7.65379V9.81777ZM10.1475 6.52684L8.88023 8.79574L8.34877 9.81777V6.19979H9.94313C10.1271 6.19979 10.2293 6.38376 10.1475 6.52684Z" fill="white"/>
</g>
<defs>
<clipPath id="clip0_10577_42104">
<rect width="12" height="12" fill="white" transform="translate(2 2)"/>
</clipPath>
</defs>
</svg>
