<svg width="16" height="16" viewBox="0 0 16 16" fill="none" xmlns="http://www.w3.org/2000/svg">
<rect x="0.25" y="0.25" width="15.5" height="15.5" rx="7.75" fill="white"/>
<rect x="0.25" y="0.25" width="15.5" height="15.5" rx="7.75" stroke="#EEEEF0" stroke-width="0.5"/>
<g clip-path="url(#clip0_10577_42102)">
<path d="M8 14C11.3137 14 14 11.3137 14 8C14 4.68629 11.3137 2 8 2C4.68629 2 2 4.68629 2 8C2 11.3137 4.68629 14 8 14Z" fill="#6C00F6"/>
<path d="M7.16913 7.03656L6.54677 6.67507L4.67969 7.75954V9.92103L6.54677 11.0018L8.41385 9.92103V6.55954L9.44987 5.95954L10.4859 6.55954V7.75954L9.44987 8.35954L8.82751 7.99805V8.95954L9.44987 9.32103L11.317 8.24028V6.07879L9.44987 4.99805L7.58279 6.07879V9.44028L6.54677 10.0403L5.51074 9.44028V8.23656L6.54677 7.63656L7.16913 7.99805V7.03656Z" fill="white"/>
</g>
<defs>
<clipPath id="clip0_10577_42102">
<rect width="12" height="12" fill="white" transform="translate(2 2)"/>
</clipPath>
</defs>
</svg>
