<svg width="16" height="16" viewBox="0 0 16 16" fill="none" xmlns="http://www.w3.org/2000/svg">
<rect x="0.25" y="0.25" width="15.5" height="15.5" rx="7.75" fill="white"/>
<rect x="0.25" y="0.25" width="15.5" height="15.5" rx="7.75" stroke="#EEEEF0" stroke-width="0.5"/>
<g clip-path="url(#clip0_10577_42103)">
<path d="M8 14C11.3137 14 14 11.3137 14 8C14 4.68629 11.3137 2 8 2C4.68629 2 2 4.68629 2 8C2 11.3137 4.68629 14 8 14Z" fill="#26A17B"/>
<path fill-rule="evenodd" clip-rule="evenodd" d="M8.71763 8.52009V8.51934C8.67638 8.52234 8.46375 8.53509 7.98937 8.53509C7.61062 8.53509 7.344 8.52384 7.25025 8.51934V8.52047C5.79225 8.45634 4.704 8.20247 4.704 7.89872C4.704 7.59534 5.79225 7.34147 7.25025 7.27622V8.26772C7.3455 8.27447 7.6185 8.29059 7.99575 8.29059C8.44837 8.29059 8.67525 8.27184 8.71763 8.26809V7.27697C10.1726 7.34184 11.2582 7.59572 11.2582 7.89872C11.2582 8.20247 10.1726 8.45559 8.71763 8.52009ZM8.71763 7.17384V6.28659H10.7479V4.93359H5.22V6.28659H7.25025V7.17347C5.60025 7.24922 4.35938 7.57622 4.35938 7.96772C4.35938 8.35922 5.60025 8.68584 7.25025 8.76197V11.6052H8.71763V8.76122C10.365 8.68547 11.6029 8.35884 11.6029 7.96772C11.6029 7.57659 10.365 7.24997 8.71763 7.17384Z" fill="white"/>
</g>
<defs>
<clipPath id="clip0_10577_42103">
<rect width="12" height="12" fill="white" transform="translate(2 2)"/>
</clipPath>
</defs>
</svg>
